<?xml version="1.0" standalone="no"?><!DOCTYPE svg PUBLIC "-//W3C//DTD SVG 1.1//EN" "http://www.w3.org/Graphics/SVG/1.1/DTD/svg11.dtd"><svg t="1713425578068" class="icon" viewBox="0 0 1024 1024" version="1.1" xmlns="http://www.w3.org/2000/svg" p-id="2554" xmlns:xlink="http://www.w3.org/1999/xlink" width="200" height="200"><path d="M506.696377 512.080115A131.25576 131.25576 0 1 1 636.825917 380.926739 130.641458 130.641458 0 0 1 506.696377 512.080115zM304.284023 701.592136v58.256262h404.92709v-58.256262a145.282311 145.282311 0 0 0-144.668009-145.794229h-115.693455a145.179928 145.179928 0 0 0-144.565626 145.794229z m650.647701-430.011069a506.082075 506.082075 0 0 0-911.213932 29.588857 37.67716 37.67716 0 0 0 18.633813 49.860807 37.267626 37.267626 0 0 0 49.451273-18.83858 431.75159 431.75159 0 0 1 774.73661-29.486473l-66.651716 30.715076 182.038019 130.948609L1023.835879 240.046922z m-10.238358 418.441724A37.267626 37.267626 0 0 0 894.423024 706.608932a431.546823 431.546823 0 0 1-759.788606 28.769788l65.423113-32.865131L13.617017 578.322297 0 803.361423l67.573168-34.093735a506.082075 506.082075 0 0 0 893.808722-28.872172 37.67716 37.67716 0 0 0-16.790908-50.475109z" p-id="2555"></path></svg>